<svg data-logo="logo" xmlns="http://www.w3.org/2000/svg" viewBox="0 0 92.5 19">
            <g style="opacity: 1;" id="logogram" transform="translate(0, 9.5) rotate(0)"></g>
            <g style="opacity: 1;" id="logotype" transform="translate(0.5, 1)"><path fill="#fafafa" d="M10.30 0.20L2.44 0.20C1.09 0.20 0 1.29 0 2.64L0 11.85L5.15 17.00L10.30 17.00ZM9.75 0.74L9.75 4.26L5.96 4.26L5.96 4.81L7.86 4.81C8.91 4.81 9.75 5.66 9.75 6.70L9.75 9.41C9.75 10.46 8.91 11.31 7.86 11.31L0.54 11.31L0.54 7.79L4.34 7.79L4.34 7.25L2.44 7.25C1.39 7.25 0.54 6.40 0.54 5.35L0.54 2.64C0.54 1.59 1.39 0.74 2.44 0.74ZM9.77 0.20L9.77 17L24.94 17L24.94 0.20ZM17.08 0.74L17.08 5.08C17.08 5.23 17.20 5.35 17.35 5.35C17.50 5.35 17.62 5.23 17.62 5.08L17.62 0.74L24.40 0.74L24.40 11.31L20.06 11.31L20.06 6.97C20.06 6.82 19.94 6.70 19.79 6.70C19.64 6.70 19.52 6.82 19.52 6.97L19.52 11.31L15.18 11.31L15.18 6.97C15.18 6.82 15.06 6.70 14.91 6.70C14.76 6.70 14.64 6.82 14.64 6.97L14.64 11.31L10.31 11.31L10.31 0.74ZM29.81 3.59C29.81 3.44 29.69 3.32 29.54 3.32C29.39 3.32 29.27 3.44 29.27 3.59L29.27 5.08C29.27 5.23 29.39 5.35 29.54 5.35C29.69 5.35 29.81 5.23 29.81 5.08ZM24.40 17.00L34.69 17.00L34.69 2.64C34.69 1.29 33.60 0.20 32.25 0.20L26.83 0.20C25.49 0.20 24.39 1.29 24.39 2.64ZM24.94 2.64C24.94 1.59 25.79 0.74 26.83 0.74L32.25 0.74C33.30 0.74 34.15 1.59 34.15 2.64L34.15 11.31L29.81 11.31L29.81 7.52C29.81 7.37 29.69 7.25 29.54 7.25C29.39 7.25 29.27 7.37 29.27 7.52L29.27 11.31L24.94 11.31ZM38.36 3.99C38.21 3.99 38.09 4.11 38.09 4.26C38.09 4.41 38.21 4.54 38.36 4.54L40.12 4.54C40.27 4.54 40.39 4.41 40.39 4.26C40.39 4.11 40.27 3.99 40.12 3.99ZM34.16 0.20L34.16 17L44.46 17L44.46 2.64C44.46 1.29 43.36 0.20 42.02 0.20ZM34.70 0.74L42.02 0.74C43.07 0.74 43.91 1.59 43.91 2.64L43.91 6.16C43.91 6.90 43.49 7.54 42.87 7.86L42.66 7.96L43.81 11.31L39.31 11.31L39.31 7.52C39.31 7.37 39.19 7.25 39.04 7.25C38.89 7.25 38.77 7.37 38.77 7.52L38.77 11.31L34.70 11.31ZM54.22 0.20L43.93 0.20L43.93 17L54.22 17ZM44.47 0.74L53.68 0.74L53.68 4.26L51.24 4.26L51.24 11.31L46.91 11.31L46.91 4.26L44.47 4.26ZM65.17 7.79C65.02 7.79 64.90 7.91 64.90 8.06C64.90 8.21 65.02 8.33 65.17 8.33L66.93 8.33C67.08 8.33 67.20 8.21 67.20 8.06C67.20 7.91 67.08 7.79 66.93 7.79ZM65.17 3.86C65.02 3.86 64.90 3.98 64.90 4.13C64.90 4.28 65.02 4.40 65.17 4.40L66.93 4.40C67.08 4.40 67.20 4.28 67.20 4.13C67.20 3.98 67.08 3.86 66.93 3.86ZM60.97 0.20L60.97 11.85L66.12 17L71.27 17L71.26 3.46C71.20 1.65 69.71 0.20 67.88 0.20ZM61.51 0.74L67.88 0.74C69.45 0.74 70.72 2.02 70.72 3.59C70.72 4.49 70.31 5.29 69.65 5.81L69.38 6.03L69.65 6.24C70.31 6.76 70.72 7.56 70.72 8.46C70.72 10.04 69.45 11.31 67.88 11.31L61.51 11.31ZM81.03 0.20L70.74 0.20L70.74 17L81.03 17ZM71.28 0.74L75.61 0.74L75.61 6.91C75.61 7.06 75.73 7.18 75.88 7.18C76.03 7.18 76.15 7.06 76.15 6.91L76.15 0.74L80.49 0.74L80.49 9.41C80.49 10.46 79.64 11.31 78.59 11.31L73.17 11.31C72.13 11.31 71.28 10.46 71.28 9.41ZM90.80 0.20L80.50 0.20L80.50 17L90.80 17ZM81.04 0.74L85.38 0.74L85.38 4.54C85.38 4.69 85.50 4.81 85.65 4.81C85.80 4.81 85.92 4.69 85.92 4.54L85.92 0.74L90.25 0.74L90.25 5.35C90.25 6.47 89.34 7.38 88.22 7.38L87.82 7.38L87.82 11.31L83.48 11.31L83.48 7.38L83.07 7.38C81.95 7.38 81.04 6.47 81.04 5.35Z"></path></g>
            
          </svg>